<svg width="24" height="24" viewBox="0 0 24 24" fill="none" xmlns="http://www.w3.org/2000/svg">
<path d="M12 1.27148C9.92344 1.27148 7.85625 1.42898 6.42188 1.73977V4.72992H17.5781V1.73977C16.1437 1.42898 14.0766 1.27148 12 1.27148ZM7.70625 5.57367L8.44687 11.7612C8.71875 11.7471 9 11.733 9.29062 11.719L8.55469 5.57367H7.70625ZM11.5734 5.57367L11.4984 11.6674H12.3422L12.4172 5.57367H11.5734ZM15.4453 5.57367L14.7094 11.719C15 11.733 15.2812 11.7471 15.5531 11.7612L16.2938 5.57367H15.4453ZM12 12.5112C10.5094 12.5112 9.01875 12.558 7.81406 12.6518C7.21406 12.6987 6.68437 12.7549 6.26719 12.8205C6.01406 12.8627 5.82188 12.9096 5.67188 12.9518V14.4799H18.3281V12.9518C18.1781 12.9096 17.9859 12.8627 17.7328 12.8205C17.3156 12.7549 16.7859 12.6987 16.1859 12.6518C14.9812 12.558 13.4906 12.5112 12 12.5112ZM7.17188 15.3237V22.7299H8.57812V15.3237H7.17188ZM15.4219 15.3237V22.7299H16.8281V15.3237H15.4219ZM9.42188 18.3237V19.0737H14.5781V18.3237H9.42188Z" fill="#4529EC"/>
</svg>
