<svg width="14" height="22" viewBox="0 0 14 22" fill="none" xmlns="http://www.w3.org/2000/svg">
<path d="M7 0.27124C4.92344 0.27124 2.85625 0.42874 1.42188 0.739521V3.72968H12.5781V0.739521C11.1438 0.42874 9.07656 0.27124 7 0.27124ZM2.70625 4.57343L3.44687 10.7609C3.71875 10.7469 4 10.7328 4.29062 10.7187L3.55469 4.57343H2.70625ZM6.57344 4.57343L6.49844 10.6672H7.34219L7.41719 4.57343H6.57344ZM10.4453 4.57343L9.70937 10.7187C10 10.7328 10.2812 10.7469 10.5531 10.7609L11.2938 4.57343H10.4453ZM7 11.5109C5.50938 11.5109 4.01875 11.5578 2.81406 11.6516C2.21406 11.6984 1.68437 11.7547 1.26719 11.8203C1.01406 11.8625 0.821875 11.9094 0.671875 11.9516V13.4797H13.3281V11.9516C13.1781 11.9094 12.9859 11.8625 12.7328 11.8203C12.3156 11.7547 11.7859 11.6984 11.1859 11.6516C9.98125 11.5578 8.49062 11.5109 7 11.5109ZM2.17188 14.3234V21.7297H3.57812V14.3234H2.17188ZM10.4219 14.3234V21.7297H11.8281V14.3234H10.4219ZM4.42188 17.3234V18.0734H9.57812V17.3234H4.42188Z" fill="#2090CE"/>
</svg>
